<svg xmlns="http://www.w3.org/2000/svg" xmlns:xlink="http://www.w3.org/1999/xlink" version="1.1" width="256" height="256" viewBox="0 0 256 256" xml:space="preserve">

<defs>
</defs>
<g style="stroke: none; stroke-width: 0; stroke-dasharray: none; stroke-linecap: butt; stroke-linejoin: miter; stroke-miterlimit: 10; fill: none; fill-rule: nonzero; opacity: 1;" transform="translate(1.4065934065934016 1.4065934065934016) scale(2.81 2.81)" >
	<circle cx="45" cy="45" r="44" style="stroke: none; stroke-width: 1; stroke-dasharray: none; stroke-linecap: butt; stroke-linejoin: miter; stroke-miterlimit: 10; fill: rgb(226,71,71); fill-rule: nonzero; opacity: 1;" transform="  matrix(1 0 0 1 0 0) "/>
	<path d="M 45 90 C 20.187 90 0 69.813 0 45 C 0 20.187 20.187 0 45 0 c 24.813 0 45 20.187 45 45 C 90 69.813 69.813 90 45 90 z M 45 2 C 21.29 2 2 21.29 2 45 c 0 23.71 19.29 43 43 43 c 23.71 0 43 -19.29 43 -43 C 88 21.29 68.71 2 45 2 z" style="stroke: none; stroke-width: 1; stroke-dasharray: none; stroke-linecap: butt; stroke-linejoin: miter; stroke-miterlimit: 10; fill: rgb(0,0,0); fill-rule: nonzero; opacity: 1;" transform=" matrix(1 0 0 1 0 0) " stroke-linecap="round" />
	<path d="M 18.036 37.631 c -0.552 0 -1 -0.448 -1 -1 V 24 c 0 -0.552 0.448 -1 1 -1 h 5.116 c 2.053 0 3.724 1.67 3.724 3.723 v 1.069 c 0 1.943 -1.581 3.523 -3.524 3.523 h -4.316 v 5.315 C 19.036 37.184 18.588 37.631 18.036 37.631 z M 19.036 29.316 h 4.316 c 0.84 0 1.524 -0.684 1.524 -1.523 v -1.069 c 0 -0.95 -0.773 -1.723 -1.724 -1.723 h -4.116 V 29.316 z" style="stroke: none; stroke-width: 1; stroke-dasharray: none; stroke-linecap: butt; stroke-linejoin: miter; stroke-miterlimit: 10; fill: rgb(0,0,0); fill-rule: nonzero; opacity: 1;" transform=" matrix(1 0 0 1 0 0) " stroke-linecap="round" />
	<path d="M 25.876 37.631 c -0.334 0 -0.661 -0.167 -0.851 -0.473 l -3.92 -6.315 c -0.292 -0.469 -0.147 -1.086 0.322 -1.377 c 0.468 -0.293 1.085 -0.147 1.377 0.322 l 3.92 6.315 c 0.292 0.469 0.147 1.086 -0.322 1.377 C 26.239 37.583 26.057 37.631 25.876 37.631 z" style="stroke: none; stroke-width: 1; stroke-dasharray: none; stroke-linecap: butt; stroke-linejoin: miter; stroke-miterlimit: 10; fill: rgb(0,0,0); fill-rule: nonzero; opacity: 1;" transform=" matrix(1 0 0 1 0 0) " stroke-linecap="round" />
	<path d="M 45.531 37.631 h -4.122 c -0.552 0 -1 -0.448 -1 -1 s 0.448 -1 1 -1 h 4.122 c 0.659 0 1.194 -0.536 1.194 -1.194 V 32.51 c 0 -0.658 -0.535 -1.194 -1.194 -1.194 h -2.295 c -1.761 0 -3.194 -1.433 -3.194 -3.194 v -1.928 c 0 -1.761 1.433 -3.194 3.194 -3.194 h 2.958 c 0.553 0 1 0.448 1 1 s -0.447 1 -1 1 h -2.958 c -0.658 0 -1.194 0.536 -1.194 1.194 v 1.928 c 0 0.658 0.536 1.194 1.194 1.194 h 2.295 c 1.761 0 3.194 1.433 3.194 3.194 v 1.928 C 48.725 36.199 47.292 37.631 45.531 37.631 z" style="stroke: none; stroke-width: 1; stroke-dasharray: none; stroke-linecap: butt; stroke-linejoin: miter; stroke-miterlimit: 10; fill: rgb(0,0,0); fill-rule: nonzero; opacity: 1;" transform=" matrix(1 0 0 1 0 0) " stroke-linecap="round" />
	<path d="M 71.965 25 h -7.84 c -0.553 0 -1 -0.448 -1 -1 s 0.447 -1 1 -1 h 7.84 c 0.553 0 1 0.448 1 1 S 72.518 25 71.965 25 z" style="stroke: none; stroke-width: 1; stroke-dasharray: none; stroke-linecap: butt; stroke-linejoin: miter; stroke-miterlimit: 10; fill: rgb(0,0,0); fill-rule: nonzero; opacity: 1;" transform=" matrix(1 0 0 1 0 0) " stroke-linecap="round" />
	<path d="M 68.045 37.631 c -0.553 0 -1 -0.448 -1 -1 V 24 c 0 -0.552 0.447 -1 1 -1 s 1 0.448 1 1 v 12.631 C 69.045 37.184 68.598 37.631 68.045 37.631 z" style="stroke: none; stroke-width: 1; stroke-dasharray: none; stroke-linecap: butt; stroke-linejoin: miter; stroke-miterlimit: 10; fill: rgb(0,0,0); fill-rule: nonzero; opacity: 1;" transform=" matrix(1 0 0 1 0 0) " stroke-linecap="round" />
	<path d="M 36.582 37.631 h -5.6 c -0.552 0 -1 -0.448 -1 -1 V 24 c 0 -0.552 0.448 -1 1 -1 h 5.6 c 0.552 0 1 0.448 1 1 s -0.448 1 -1 1 h -4.6 v 10.631 h 4.6 c 0.552 0 1 0.448 1 1 S 37.134 37.631 36.582 37.631 z" style="stroke: none; stroke-width: 1; stroke-dasharray: none; stroke-linecap: butt; stroke-linejoin: miter; stroke-miterlimit: 10; fill: rgb(0,0,0); fill-rule: nonzero; opacity: 1;" transform=" matrix(1 0 0 1 0 0) " stroke-linecap="round" />
	<path d="M 34.645 31.316 h -3.663 c -0.552 0 -1 -0.448 -1 -1 s 0.448 -1 1 -1 h 3.663 c 0.552 0 1 0.448 1 1 S 35.197 31.316 34.645 31.316 z" style="stroke: none; stroke-width: 1; stroke-dasharray: none; stroke-linecap: butt; stroke-linejoin: miter; stroke-miterlimit: 10; fill: rgb(0,0,0); fill-rule: nonzero; opacity: 1;" transform=" matrix(1 0 0 1 0 0) " stroke-linecap="round" />
	<path d="M 59.006 37.631 h -5.6 c -0.553 0 -1 -0.448 -1 -1 V 24 c 0 -0.552 0.447 -1 1 -1 h 5.6 c 0.553 0 1 0.448 1 1 s -0.447 1 -1 1 h -4.6 v 10.631 h 4.6 c 0.553 0 1 0.448 1 1 S 59.559 37.631 59.006 37.631 z" style="stroke: none; stroke-width: 1; stroke-dasharray: none; stroke-linecap: butt; stroke-linejoin: miter; stroke-miterlimit: 10; fill: rgb(0,0,0); fill-rule: nonzero; opacity: 1;" transform=" matrix(1 0 0 1 0 0) " stroke-linecap="round" />
	<path d="M 57.068 31.316 h -3.662 c -0.553 0 -1 -0.448 -1 -1 s 0.447 -1 1 -1 h 3.662 c 0.553 0 1 0.448 1 1 S 57.621 31.316 57.068 31.316 z" style="stroke: none; stroke-width: 1; stroke-dasharray: none; stroke-linecap: butt; stroke-linejoin: miter; stroke-miterlimit: 10; fill: rgb(0,0,0); fill-rule: nonzero; opacity: 1;" transform=" matrix(1 0 0 1 0 0) " stroke-linecap="round" />
	<path d="M 36.594 64.705 V 46.017 c 0 -1.362 1.114 -2.476 2.476 -2.476 h 0.24 c 1.362 0 2.476 1.114 2.476 2.476 v 8.345 c 0 -1.362 1.114 -2.476 2.476 -2.476 h 0.24 c 1.362 0 2.476 1.114 2.476 2.476 v 1.757 c 0 -1.362 1.114 -2.476 2.476 -2.476 h 0.24 c 1.362 0 2.476 1.114 2.476 2.476 v 2.476 c 0 -1.362 1.114 -2.476 2.476 -2.476 h 0.24 c 1.362 0 2.476 1.114 2.476 2.476 v 5.828 v 2.784 v 0.746 c 0 2.562 -0.94 4.915 -2.493 6.73 l -0.001 0 v 2.737 c 0 0.909 -0.737 1.645 -1.645 1.645 h -12.58 c -0.909 0 -1.645 -0.737 -1.645 -1.645 v -2.857 l 0 0 l -5.278 -6.525 c -1.719 -2.125 -1.34 -5.25 0.837 -6.902 l 2.039 -1.548" style="stroke: none; stroke-width: 1; stroke-dasharray: none; stroke-linecap: butt; stroke-linejoin: miter; stroke-miterlimit: 10; fill: rgb(236,190,155); fill-rule: nonzero; opacity: 1;" transform=" matrix(1 0 0 1 0 0) " stroke-linecap="round" />
	<path d="M 53.222 80.065 h -12.58 c -1.458 0 -2.646 -1.187 -2.646 -2.646 v -2.504 l -5.056 -6.25 c -1.003 -1.24 -1.45 -2.795 -1.258 -4.378 s 0.998 -2.985 2.268 -3.95 l 1.644 -1.247 V 46.017 c 0 -1.917 1.56 -3.476 3.476 -3.476 h 0.24 c 1.917 0 3.476 1.559 3.476 3.476 v 5.198 c 0.448 -0.211 0.948 -0.329 1.476 -0.329 h 0.24 c 1.47 0 2.73 0.918 3.237 2.21 c 0.506 -0.288 1.092 -0.453 1.715 -0.453 h 0.239 c 1.697 0 3.115 1.223 3.417 2.833 c 0.463 -0.229 0.984 -0.357 1.535 -0.357 h 0.24 c 1.916 0 3.476 1.56 3.476 3.477 v 9.357 c 0 2.573 -0.883 5.076 -2.493 7.09 v 2.378 C 55.867 78.879 54.681 80.065 53.222 80.065 z M 35.594 61.602 l -0.435 0.33 c -0.835 0.634 -1.365 1.557 -1.491 2.598 c -0.126 1.041 0.167 2.063 0.827 2.879 l 5.278 6.525 c 0.144 0.178 0.223 0.4 0.223 0.629 v 2.857 c 0 0.355 0.29 0.646 0.646 0.646 h 12.58 c 0.355 0 0.646 -0.29 0.646 -0.646 v -2.737 c 0 -0.238 0.085 -0.469 0.24 -0.65 c 1.453 -1.698 2.253 -3.857 2.253 -6.08 v -9.357 c 0 -0.814 -0.662 -1.477 -1.476 -1.477 h -0.24 c -0.813 0 -1.476 0.662 -1.476 1.477 c 0 0.553 -0.447 1 -1 1 s -1 -0.447 -1 -1 v -2.477 c 0 -0.813 -0.662 -1.476 -1.477 -1.476 h -0.239 c -0.814 0 -1.477 0.662 -1.477 1.476 c 0 0.553 -0.447 1 -1 1 s -1 -0.447 -1 -1 v -1.757 c 0 -0.813 -0.662 -1.476 -1.475 -1.476 h -0.24 c -0.813 0 -1.476 0.662 -1.476 1.476 c 0 0.553 -0.448 1 -1 1 s -1 -0.447 -1 -1 v -8.345 c 0 -0.813 -0.662 -1.476 -1.476 -1.476 h -0.24 c -0.814 0 -1.476 0.662 -1.476 1.476 v 13.559 c 0 0.008 0 0.015 0 0.021 v 5.108 c 0 0.553 -0.448 1 -1 1 s -1 -0.447 -1 -1 V 61.602 z" style="stroke: none; stroke-width: 1; stroke-dasharray: none; stroke-linecap: butt; stroke-linejoin: miter; stroke-miterlimit: 10; fill: rgb(0,0,0); fill-rule: nonzero; opacity: 1;" transform=" matrix(1 0 0 1 0 0) " stroke-linecap="round" />
	<path d="M 41.791 62.303 c -0.552 0 -1 -0.447 -1 -0.999 l -0.005 -6.941 c 0 -0.553 0.447 -1.001 1 -1.001 h 0 c 0.552 0 1 0.447 1 0.999 l 0.005 6.941 C 42.791 61.854 42.344 62.303 41.791 62.303 L 41.791 62.303 z" style="stroke: none; stroke-width: 1; stroke-dasharray: none; stroke-linecap: butt; stroke-linejoin: miter; stroke-miterlimit: 10; fill: rgb(0,0,0); fill-rule: nonzero; opacity: 1;" transform=" matrix(1 0 0 1 0 0) " stroke-linecap="round" />
	<path d="M 46.982 62.303 c -0.552 0 -1 -0.447 -1 -0.999 l -0.006 -5.185 c 0 -0.552 0.446 -1 0.999 -1.001 h 0.001 c 0.552 0 0.999 0.447 1 0.999 l 0.006 5.185 C 47.983 61.854 47.536 62.302 46.982 62.303 L 46.982 62.303 z" style="stroke: none; stroke-width: 1; stroke-dasharray: none; stroke-linecap: butt; stroke-linejoin: miter; stroke-miterlimit: 10; fill: rgb(0,0,0); fill-rule: nonzero; opacity: 1;" transform=" matrix(1 0 0 1 0 0) " stroke-linecap="round" />
	<path d="M 52.169 62.303 c -0.553 0 -1 -0.447 -1 -1 v -2.708 c 0 -0.553 0.447 -1 1 -1 s 1 0.447 1 1 v 2.708 C 53.169 61.855 52.722 62.303 52.169 62.303 z" style="stroke: none; stroke-width: 1; stroke-dasharray: none; stroke-linecap: butt; stroke-linejoin: miter; stroke-miterlimit: 10; fill: rgb(0,0,0); fill-rule: nonzero; opacity: 1;" transform=" matrix(1 0 0 1 0 0) " stroke-linecap="round" />
</g>
</svg>